<svg width="50" height="50" viewBox="0 0 50 50" fill="none" xmlns="http://www.w3.org/2000/svg">
<path d="M24.8984 1.5625C24.9629 1.5625 25.0273 1.5625 25.0938 1.5625C25.0978 1.6368 25.1018 1.71111 25.106 1.78766C25.0942 12.2935 25.0942 12.2935 29.4883 21.2891C32.2728 23.6784 36.5684 24.0465 40.05 24.3629C40.1182 24.3692 40.1863 24.3754 40.2565 24.3818C41.8664 24.5273 43.4787 24.6231 45.0926 24.7129C45.4719 24.7341 45.8512 24.756 46.2304 24.7778C46.9648 24.8199 47.6992 24.8614 48.4336 24.9023C48.4336 24.9668 48.4336 25.0312 48.4336 25.0977C48.3578 25.1017 48.2821 25.1057 48.2041 25.1099C37.7014 25.0971 37.7014 25.0971 28.707 29.4922C26.3177 32.2767 25.9496 36.5723 25.6331 40.0539C25.6269 40.1221 25.6207 40.1902 25.6143 40.2604C25.4688 41.8703 25.373 43.4827 25.2832 45.0965C25.262 45.4758 25.2401 45.8551 25.2183 46.2343C25.1762 46.9687 25.1347 47.7031 25.0938 48.4375C25.0293 48.4375 24.9648 48.4375 24.8984 48.4375C24.8944 48.3632 24.8904 48.2889 24.8862 48.2123C24.898 37.7065 24.898 37.7065 20.5039 28.7109C15.8973 24.7581 7.31006 25.3802 1.65625 25.0977C1.65625 25.0332 1.65625 24.9688 1.65625 24.9023C1.73106 24.8981 1.80588 24.8939 1.88296 24.8895C2.60486 24.8484 3.32673 24.8069 4.04857 24.7647C4.41925 24.7431 4.78993 24.7217 5.16065 24.7007C9.1373 24.4791 9.1373 24.4791 13.0881 23.9929C13.1532 23.9828 13.2183 23.9726 13.2854 23.9622C16.3234 23.4853 19.6094 22.6865 21.5781 20.1172C25.0718 15.1223 24.6171 7.40029 24.8984 1.5625Z" fill="black"/>
</svg>
