<svg width="50" height="50" viewBox="0 0 50 50" fill="none" xmlns="http://www.w3.org/2000/svg">
<path d="M39.4748 20.3022C39.4248 23.2172 38.8148 26.0072 37.4948 28.6072C37.2148 29.1572 37.2748 29.4472 37.7248 29.8472C40.8198 32.5872 43.9148 35.3322 46.9648 38.1172C50.5998 41.4372 49.2898 47.2772 44.5948 48.7072C42.0148 49.4922 39.8248 48.6672 38.0598 46.7622C35.3048 43.7922 32.6098 40.7672 29.9248 37.7272C29.4698 37.2072 29.1598 37.1922 28.5648 37.4822C17.1248 43.1072 3.28478 35.9022 1.19978 23.3722C-0.550219 12.8672 6.65978 3.15723 16.7798 1.31223C28.0598 -0.742765 38.7298 7.59224 39.3898 19.0722C39.4148 19.4822 39.4448 19.8922 39.4748 20.3022ZM20.1998 36.7272C29.3298 36.6872 36.7648 29.3222 36.7698 20.3522C36.7748 11.3822 29.7798 3.80223 20.3948 3.69223C11.2298 3.58223 3.59978 11.0372 3.60478 19.8672C3.60978 29.3072 10.9548 36.7672 20.1998 36.7322V36.7272ZM31.9398 35.9872C34.3448 38.6572 36.9798 41.5822 39.6148 44.5022C39.8148 44.7272 40.0098 44.9622 40.2348 45.1572C41.1048 45.9122 42.0748 46.4722 43.2798 46.2572C44.7848 45.9872 45.7948 45.1172 46.2348 43.6372C46.6748 42.1722 46.0998 40.9922 45.0698 40.0272C43.4948 38.5522 41.8648 37.1322 40.2548 35.6922C38.7498 34.3472 37.2448 33.0022 35.9948 31.8822C34.6248 33.2722 33.3248 34.5872 31.9448 35.9872H31.9398Z" fill="black"/>
<path d="M29.069 15.5559C29.109 17.3009 28.479 18.8909 27.844 20.4509C26.084 24.7659 23.834 28.8359 21.424 32.8159C20.819 33.8159 19.659 33.9109 19.079 32.9359C16.229 28.1409 13.444 23.3159 11.709 17.9609C9.97902 12.6259 14.369 6.7209 20.289 6.8659C25.234 6.9859 28.944 10.6509 29.069 15.5509V15.5559ZM20.104 29.4709C20.209 29.4959 20.314 29.5259 20.419 29.5509C22.019 26.2959 23.669 23.0609 25.199 19.7659C25.744 18.5909 26.219 17.3009 26.339 16.0259C26.704 12.1409 23.204 9.0259 19.274 9.5709C15.764 10.0609 13.294 13.6109 14.229 16.9709C15.479 21.4659 17.909 25.4109 20.104 29.4659V29.4709Z" fill="black"/>
<path d="M20.2184 11.1562C22.7784 11.1562 24.7684 13.1713 24.7634 15.7513C24.7634 18.2313 22.7184 20.2363 20.1934 20.2363C17.6284 20.2363 15.6534 18.2413 15.6484 15.6463C15.6484 13.1513 17.6784 11.1563 20.2134 11.1613L20.2184 11.1562ZM20.2084 13.8162C19.1684 13.8162 18.3234 14.6513 18.3284 15.6813C18.3284 16.7163 19.1684 17.5613 20.1984 17.5663C21.2184 17.5663 22.1034 16.7013 22.0934 15.6962C22.0834 14.6712 21.2284 13.8113 20.2134 13.8113L20.2084 13.8162Z" fill="black"/>
</svg>
