<svg width="50" height="50" viewBox="0 0 50 50" fill="none" xmlns="http://www.w3.org/2000/svg">
<path d="M3.32851 33.5717C2.15851 33.3317 1.43851 32.0167 1.33851 30.9017C0.783513 24.7017 1.76851 17.6817 1.34351 11.3967C1.47851 10.3567 2.06851 9.35172 3.09851 9.01172H39.9635C41.1935 9.42672 41.6485 10.5917 41.7385 11.8067L43.0185 12.1667L43.0985 14.2417L44.8835 12.8967C45.1685 12.9217 47.4085 15.0417 47.5935 15.3517C48.2085 16.3817 46.6685 16.6217 46.5485 17.5167L48.4485 17.6017C48.9135 17.8767 48.9185 20.9867 48.7035 21.4817C48.3685 22.2467 47.2285 21.9617 46.5485 22.0067C46.9185 22.6417 47.9935 23.1817 47.6285 24.0267C47.5135 24.2867 45.4335 26.3917 45.2185 26.4567C44.1435 26.7817 43.8635 25.7317 43.0985 25.2817L43.0135 27.1817C42.7935 27.6367 42.1385 27.5317 41.7185 27.5267C41.5985 29.0367 42.1485 31.7717 40.8985 32.8817C40.7385 33.0217 39.6985 33.5667 39.5635 33.5667H24.5535L24.3235 33.8517C24.2735 34.0067 24.3035 34.1717 24.2885 34.3317C24.2535 34.7617 24.2035 35.3667 24.5585 35.6367H28.8735C29.5535 35.6367 30.6235 36.8417 30.7835 37.5217C30.9085 38.0617 31.0535 40.9867 30.4285 40.9867H12.6435C12.0385 40.9867 12.1435 38.0067 12.2535 37.4867C12.3885 36.8217 13.5685 35.6367 14.1985 35.6367H18.5135L18.7435 35.3517C18.7935 35.1967 18.7635 35.0317 18.7785 34.8717C18.8135 34.4417 18.8635 33.8367 18.5085 33.5667H3.32851V33.5717ZM2.89851 11.2267V28.5667H7.38351V24.6867C7.38351 24.6367 6.87351 24.0367 6.75351 23.9367C6.08851 23.3617 4.70351 23.2867 5.00351 22.1417C6.49351 19.1017 7.48351 15.1417 9.07851 12.2267C9.81351 10.8867 10.4485 11.8767 10.8685 12.7467C12.3285 15.7767 13.3735 19.2167 14.8085 22.2817C14.9185 23.3617 13.5735 23.3167 12.9035 23.9817C12.7535 24.1317 12.2185 24.9117 12.2185 25.0217V28.5567H40.1735C40.5285 27.0267 39.0385 27.8567 38.7085 27.1767L38.6235 25.2767C37.2185 26.5017 37.3035 27.0167 35.6885 25.7117C33.8785 24.2467 33.4385 23.6867 35.3435 22.0017C34.4335 21.8967 33.2535 22.4267 33.0935 21.2317C33.0335 20.7717 33.0435 18.1567 33.1885 17.8567C33.4785 17.2617 34.7785 17.5917 35.3485 17.5117L34.0035 15.8467C33.9585 15.3817 36.3985 12.9317 36.8435 12.8917L38.6285 14.2367C38.5635 12.8467 38.4035 11.6867 40.1835 11.8217C40.2335 11.3317 40.0635 10.8317 39.6635 10.5267L3.84851 10.4317C3.46851 10.3567 2.97351 10.9117 2.90851 11.2167L2.89851 11.2267ZM41.5485 13.3817H40.1685C40.1135 14.2667 40.4635 14.9517 39.6335 15.5217C38.2935 16.4417 37.8885 15.7167 36.9735 14.7667L36.0385 15.7367C36.8235 16.7717 37.5685 17.1867 36.6185 18.5467C36.1135 19.2667 35.2335 19.0617 34.4735 19.0767V20.4567C35.8785 20.3967 36.6935 20.2517 36.9935 21.8317C37.1785 22.8067 36.3885 22.9767 35.8585 23.6517L36.8285 24.5867C37.5985 24.2917 37.9085 23.4067 38.8335 23.5967C40.1735 23.8667 40.3185 24.7517 40.1685 25.9817H41.5485C41.3835 24.6967 41.7235 23.8567 43.0585 23.6017C44.1985 23.3817 44.4335 24.8167 44.9985 24.5267L45.8585 23.6517C44.9035 22.7367 44.1785 22.3317 45.1035 20.9917C45.6735 20.1617 46.3635 20.5117 47.2435 20.4567V19.0767C45.8785 19.2367 44.9885 19.0017 44.7185 17.5267C44.4935 16.2867 47.0335 16.2417 44.9135 14.7667C43.4885 16.7817 41.0835 15.9117 41.5485 13.3817ZM10.6635 16.4867V19.8517C10.6635 20.6817 9.10851 20.5417 9.10851 20.0267V16.3167L6.68351 22.0817C7.56851 22.5717 8.27851 23.1467 8.70351 24.0867L10.8885 24.0517C11.5485 23.3867 12.0735 22.3717 13.0735 22.1817L10.6585 16.4917L10.6635 16.4867ZM10.6635 25.6317H8.93851V28.5667H10.6635V25.6317ZM40.1685 30.1217H2.89851C2.86351 30.7967 2.82851 31.4867 3.41351 31.9317H39.6485C40.2335 31.4867 40.1985 30.7967 40.1635 30.1217H40.1685ZM22.9135 33.5717H20.1535V35.6417H22.9135V33.5717ZM29.2985 39.4367C29.2535 38.6517 29.5635 37.7617 28.7785 37.2817L14.5535 37.1967C13.6635 37.3617 13.5235 38.6817 13.5985 39.4367H29.2985Z" fill="black"/>
<path d="M15.7065 26.7964C15.5115 26.5264 15.5115 26.2114 15.4865 25.8964C15.4315 25.1964 15.4065 20.9814 15.5765 20.6264C15.6465 20.4814 15.8015 20.3614 15.9565 20.3164L31.6365 20.4414C31.7715 20.5914 31.9165 20.7714 31.9765 20.9614C32.1515 21.5364 32.1565 25.3714 32.0465 26.0514C31.9915 26.3914 31.7665 26.8764 31.4215 26.9764L15.7065 26.7964ZM30.5015 21.8314H17.0415V25.4564H30.5015V21.8314Z" fill="black"/>
<path d="M15.7011 18.5155C15.5061 18.2455 15.5061 17.9305 15.4811 17.6155C15.3811 16.4205 15.3611 14.1205 15.4811 12.9405C15.5461 12.2955 15.5611 12.0855 16.2611 11.9955C17.6361 11.8155 21.4111 11.8555 22.8361 11.9955C23.4811 12.0605 23.6911 12.0755 23.7811 12.7755C23.9161 13.8055 23.9061 16.9205 23.7811 17.9705C23.6961 18.6855 23.2911 18.6905 22.6561 18.7455C21.0911 18.8855 18.1711 18.8755 16.6011 18.7455C16.2861 18.7205 15.9711 18.7205 15.7011 18.5255V18.5155ZM22.2161 13.5555H17.0411V17.1805H22.2161V13.5555Z" fill="black"/>
<path d="M31.4907 13.424C31.9757 13.904 31.6457 14.644 30.9207 14.749C29.9007 14.894 26.4207 14.909 25.4207 14.749C25.0707 14.694 24.6757 14.559 24.6257 14.149C24.5757 13.669 24.7407 13.304 25.2457 13.209C26.1807 13.034 29.5407 13.104 30.5957 13.199C30.8657 13.224 31.3007 13.229 31.4957 13.419L31.4907 13.424Z" fill="black"/>
<path d="M25.0572 15.9727H31.2672C31.5372 15.9727 32.0972 17.1177 31.0172 17.4477C30.4522 17.6227 25.9122 17.6277 25.2672 17.4877C24.9672 17.4227 24.6522 17.2627 24.6172 16.9177L25.0572 15.9727Z" fill="black"/>
<path d="M39.942 16.7025C45.247 15.6025 45.407 23.5375 40.262 22.8575C37.022 22.4325 36.897 17.3325 39.942 16.7025ZM40.637 18.0725C38.647 18.3125 38.752 21.8875 41.417 21.2825C43.202 20.8775 42.697 17.8225 40.637 18.0725Z" fill="black"/>
</svg>
